<svg width="50" height="50" viewBox="0 0 50 50" fill="none" xmlns="http://www.w3.org/2000/svg">
<rect width="50" height="50" rx="9" fill="#3DAF29"/>
<path d="M33.9708 32.7111L18.6348 33.009" stroke="white" stroke-width="2.5" stroke-linecap="round" stroke-linejoin="round"/>
<path d="M4.56508 33.0089C3.89511 32.86 3.29955 32.6367 3.22504 32.2645C3.15063 31.52 3.00172 29.4355 3.00172 28.4677C2.98514 28.0738 3.08905 27.6843 3.29955 27.3509C4.11863 25.862 6.87292 22.2884 14.3917 22.5863L22.0595 17.4496C22.4181 17.2257 22.8283 17.0975 23.2506 17.0774L37.8421 17.003C38.068 16.9908 38.2944 17.016 38.5121 17.0774C40.1503 17.524 47.2223 20.0552 46.2545 26.4576L47.0736 26.9043C47.4502 27.066 47.7269 27.398 47.8181 27.7976C48.104 28.854 48.0519 29.9735 47.6692 30.9988" stroke="white" stroke-width="2.5" stroke-linecap="round" stroke-linejoin="round"/>
<path d="M17.0723 24.4472L39.5546 24.2982V20.5157" stroke="white" stroke-width="2.5" stroke-linecap="round" stroke-linejoin="round"/>
<path d="M11.4137 35.9867C13.4695 35.9867 15.136 34.3202 15.136 32.2644C15.136 30.2087 13.4695 28.5421 11.4137 28.5421C9.35793 28.5421 7.69141 30.2087 7.69141 32.2644C7.69141 34.3202 9.35793 35.9867 11.4137 35.9867Z" stroke="white" stroke-width="2.5" stroke-linecap="round" stroke-linejoin="round"/>
<path d="M41.0426 35.9867C43.0984 35.9867 44.7649 34.3202 44.7649 32.2644C44.7649 30.2087 43.0984 28.5421 41.0426 28.5421C38.9868 28.5421 37.3203 30.2087 37.3203 32.2644C37.3203 34.3202 38.9868 35.9867 41.0426 35.9867Z" stroke="white" stroke-width="2.5" stroke-linecap="round" stroke-linejoin="round"/>
<path d="M7.69208 26.6805L6.35195 28.3186L3.59766 28.2446" stroke="white" stroke-width="2.5" stroke-linecap="round" stroke-linejoin="round"/>
</svg>
