<svg width="50" height="50" viewBox="0 0 50 50" fill="none" xmlns="http://www.w3.org/2000/svg">
<rect width="50" height="50" rx="9" fill="#3DAF29"/>
<path d="M38.7074 37V35.6705L41.8139 32.794C42.0781 32.5384 42.2997 32.3082 42.4787 32.1037C42.6605 31.8991 42.7983 31.6989 42.892 31.5028C42.9858 31.304 43.0327 31.0895 43.0327 30.8594C43.0327 30.6037 42.9744 30.3835 42.858 30.1989C42.7415 30.0114 42.5824 29.8679 42.3807 29.7685C42.179 29.6662 41.9503 29.6151 41.6946 29.6151C41.4276 29.6151 41.1946 29.669 40.9957 29.777C40.7969 29.8849 40.6435 30.0398 40.5355 30.2415C40.4276 30.4432 40.3736 30.6832 40.3736 30.9616H38.6222C38.6222 30.3906 38.7514 29.8949 39.0099 29.4744C39.2685 29.054 39.6307 28.7287 40.0966 28.4986C40.5625 28.2685 41.0994 28.1534 41.7074 28.1534C42.3324 28.1534 42.8764 28.2642 43.3395 28.4858C43.8054 28.7045 44.1676 29.0085 44.4261 29.3977C44.6847 29.7869 44.8139 30.233 44.8139 30.7358C44.8139 31.0653 44.7486 31.3906 44.6179 31.7116C44.4901 32.0327 44.2614 32.3892 43.9318 32.7812C43.6023 33.1705 43.1378 33.6378 42.5384 34.1832L41.2642 35.4318V35.4915H44.929V37H38.7074Z" fill="white"/>
<path d="M19.9176 21.6562H16.1847C16.1165 21.1733 15.9773 20.7443 15.767 20.3693C15.5568 19.9886 15.2869 19.6648 14.9574 19.3977C14.6278 19.1307 14.2472 18.9261 13.8153 18.7841C13.3892 18.642 12.9261 18.571 12.4261 18.571C11.5227 18.571 10.7358 18.7955 10.0653 19.2443C9.39489 19.6875 8.875 20.3352 8.50568 21.1875C8.13636 22.0341 7.9517 23.0625 7.9517 24.2727C7.9517 25.517 8.13636 26.5625 8.50568 27.4091C8.88068 28.2557 9.40341 28.8949 10.0739 29.3267C10.7443 29.7585 11.5199 29.9744 12.4006 29.9744C12.8949 29.9744 13.3523 29.9091 13.7727 29.7784C14.1989 29.6477 14.5767 29.4574 14.9062 29.2074C15.2358 28.9517 15.5085 28.642 15.7244 28.2784C15.946 27.9148 16.0994 27.5 16.1847 27.0341L19.9176 27.0511C19.821 27.8523 19.5795 28.625 19.1932 29.3693C18.8125 30.108 18.2983 30.7699 17.6506 31.3551C17.0085 31.9347 16.2415 32.3949 15.3494 32.7358C14.4631 33.071 13.4602 33.2386 12.3409 33.2386C10.7841 33.2386 9.39205 32.8864 8.16477 32.1818C6.94318 31.4773 5.97727 30.4574 5.26705 29.1222C4.5625 27.7869 4.21023 26.1705 4.21023 24.2727C4.21023 22.3693 4.56818 20.75 5.28409 19.4148C6 18.0795 6.97159 17.0625 8.19886 16.3636C9.42614 15.6591 10.8068 15.3068 12.3409 15.3068C13.3523 15.3068 14.2898 15.4489 15.1534 15.733C16.0227 16.017 16.7926 16.4318 17.4631 16.9773C18.1335 17.517 18.679 18.179 19.0994 18.9631C19.5256 19.7472 19.7983 20.6449 19.9176 21.6562ZM38.6037 24.2727C38.6037 26.1761 38.2429 27.7955 37.5213 29.1307C36.8054 30.4659 35.8281 31.4858 34.5895 32.1903C33.3565 32.8892 31.9702 33.2386 30.4304 33.2386C28.8793 33.2386 27.4872 32.8864 26.2543 32.1818C25.0213 31.4773 24.0469 30.4574 23.331 29.1222C22.6151 27.7869 22.2571 26.1705 22.2571 24.2727C22.2571 22.3693 22.6151 20.75 23.331 19.4148C24.0469 18.0795 25.0213 17.0625 26.2543 16.3636C27.4872 15.6591 28.8793 15.3068 30.4304 15.3068C31.9702 15.3068 33.3565 15.6591 34.5895 16.3636C35.8281 17.0625 36.8054 18.0795 37.5213 19.4148C38.2429 20.75 38.6037 22.3693 38.6037 24.2727ZM34.8622 24.2727C34.8622 23.0398 34.6776 22 34.3082 21.1534C33.9446 20.3068 33.4304 19.6648 32.7656 19.2273C32.1009 18.7898 31.3224 18.571 30.4304 18.571C29.5384 18.571 28.7599 18.7898 28.0952 19.2273C27.4304 19.6648 26.9134 20.3068 26.544 21.1534C26.1804 22 25.9986 23.0398 25.9986 24.2727C25.9986 25.5057 26.1804 26.5455 26.544 27.392C26.9134 28.2386 27.4304 28.8807 28.0952 29.3182C28.7599 29.7557 29.5384 29.9744 30.4304 29.9744C31.3224 29.9744 32.1009 29.7557 32.7656 29.3182C33.4304 28.8807 33.9446 28.2386 34.3082 27.392C34.6776 26.5455 34.8622 25.5057 34.8622 24.2727Z" fill="white"/>
</svg>
