<svg width="50" height="50" viewBox="0 0 50 50" fill="none" xmlns="http://www.w3.org/2000/svg">
<rect width="50" height="50" rx="9" fill="#3DAF29"/>
<path d="M29.9555 10.677L26.9035 20.4164C26.8496 20.6269 26.8558 20.8444 26.9215 21.0527C26.9872 21.2611 27.1109 21.455 27.2833 21.62C27.4557 21.7851 27.6725 21.9171 27.9175 22.0062C28.1625 22.0954 28.4296 22.1394 28.6988 22.1351H32.1098C32.4432 22.1351 32.7701 22.2091 33.0537 22.349C33.3373 22.4888 33.5665 22.6889 33.7156 22.9268C33.8647 23.1647 33.9278 23.431 33.8979 23.696C33.8679 23.9609 33.7461 24.2139 33.5461 24.4267L20.9791 39.3221L24.0311 28.1505C24.085 27.94 24.0789 27.7226 24.0131 27.5142C23.9474 27.3058 23.8237 27.1119 23.6513 26.9469C23.4789 26.7818 23.2622 26.6498 23.0171 26.5607C22.7721 26.4715 22.5051 26.4275 22.2358 26.4318H19.5429C19.2791 26.4229 19.0205 26.37 18.7838 26.2766C18.5471 26.1832 18.3375 26.0514 18.1684 25.8895C17.9993 25.7277 17.8746 25.5394 17.8021 25.3368C17.7297 25.1342 17.7111 24.9218 17.7476 24.7131L20.9791 10.677H29.9555ZM29.9555 7.81251H20.9791C20.1428 7.81068 19.3309 8.03691 18.6778 8.4537C18.0248 8.87049 17.5699 9.45281 17.3886 10.1041L14.1571 24.2835C14.0126 24.9072 14.0338 25.5482 14.2194 26.165C14.4049 26.7817 14.7507 27.3606 15.2342 27.8641C15.7688 28.3483 16.4347 28.7289 17.1813 28.9771C17.9279 29.2253 18.7355 29.3344 19.5429 29.2963H20.0815L17.3886 38.7492C17.2284 39.4117 17.3541 40.098 17.7453 40.6962C18.1365 41.2944 18.7701 41.7692 19.5429 42.0434C20.0815 42.0434 20.4405 42.1867 20.9791 42.1867C21.5837 42.1985 22.1819 42.0862 22.7163 41.8604C23.2508 41.6347 23.7035 41.3032 24.0311 40.8976L36.598 26.0022C37.1536 25.3521 37.4655 24.5893 37.4973 23.803C37.5291 23.0167 37.2794 22.2394 36.7776 21.5622C36.3082 20.864 35.6085 20.2814 34.7542 19.8775C33.8999 19.4736 32.9234 19.2637 31.9303 19.2706H31.0327L33.5461 11.3932C33.6556 10.9645 33.6457 10.5218 33.5171 10.0966C33.3885 9.67127 33.1442 9.27375 32.8017 8.93212C32.4591 8.5905 32.0266 8.31313 31.5347 8.11966C31.0429 7.92618 30.5038 7.82132 29.9555 7.81251Z" fill="white"/>
</svg>
