<svg width="50" height="50" viewBox="0 0 50 50" fill="none" xmlns="http://www.w3.org/2000/svg">
<rect width="50" height="50" rx="9" fill="#3DAF29"/>
<path fill-rule="evenodd" clip-rule="evenodd" d="M43 22.8844L42.1529 21.6442L39.688 22.6818C36.5031 17.6753 30.6711 14 24.5849 14C15.5511 13.9959 7 22.1279 7 30.7394V31.2686L7.03812 31.9714H11.3581L11.3031 31.2686C11.2941 31.0992 11.2941 30.9295 11.3031 30.7601C11.3031 23.8022 17.2621 18.1259 24.5892 18.1259C29.2224 18.1105 33.5334 20.4382 35.9821 24.2777L27.5412 27.8579C26.0179 26.6219 23.8854 26.3941 22.1242 27.2791C20.9905 27.8265 20.1336 28.8003 19.7502 29.9768C19.3668 31.1534 19.4899 32.4315 20.0913 33.5176C21.3756 35.7903 24.278 36.6547 26.6433 35.469C28.3906 34.6163 29.4157 32.7978 29.2184 30.9007L37.0494 26.353C37.6083 27.7598 37.8955 29.2554 37.8965 30.7642V31.2727L37.8414 31.9756H42.1614L42.1995 31.2727C42.2089 31.0965 42.2089 30.9198 42.1995 30.7436C42.1669 28.5016 41.6168 26.2958 40.5901 24.2901L43 22.8844Z" fill="white"/>
</svg>
